<?xml version="1.0" encoding="UTF-8"?>
<svg xmlns="http://www.w3.org/2000/svg" xmlns:xlink="http://www.w3.org/1999/xlink" viewBox="0 0 60 60" width="60px" height="60px">
<g id="surface23928815">
<path style="fill-rule:nonzero;fill:rgb(90.588236%,29.803923%,23.529412%);fill-opacity:1;stroke-width:10;stroke-linecap:butt;stroke-linejoin:round;stroke:rgb(77.64706%,8.235294%,22.745098%);stroke-opacity:1;stroke-miterlimit:10;" d="M 90.05258 15.933036 C 91.142748 17.023203 91.758929 18.516259 91.73523 20.068563 L 91.73523 22.936177 L 123.267142 22.936177 C 124.795746 22.912478 126.276952 23.50496 127.36712 24.583278 C 128.469137 25.661596 129.073469 27.130953 129.073469 28.671407 L 137.605215 28.671407 C 139.667054 28.635858 141.586696 29.726025 142.629465 31.515322 C 143.672234 33.292769 143.672234 35.508653 142.629465 37.2861 C 141.586696 39.075397 139.667054 40.165565 137.605215 40.130016 L 34.394786 40.130016 C 32.332948 40.165565 30.413305 39.075397 29.370536 37.2861 C 28.327767 35.508653 28.327767 33.292769 29.370536 31.515322 C 30.413305 29.726025 32.332948 28.635858 34.394786 28.671407 L 42.926532 28.671407 C 42.926532 27.130953 43.530865 25.661596 44.632882 24.583278 C 45.723049 23.50496 47.204255 22.912478 48.73286 22.936177 L 80.264771 22.936177 L 80.264771 20.068563 C 80.229222 16.904707 82.753197 14.309634 85.905203 14.250386 C 87.457507 14.226687 88.950563 14.831019 90.05258 15.933036 Z M 137.605215 51.600474 L 127.319721 138.944225 C 126.632441 144.715003 121.762236 149.063824 115.944059 149.063824 L 56.055942 149.063824 C 50.237765 149.063824 45.35571 144.715003 44.68028 138.944225 L 34.394786 51.600474 Z M 137.605215 51.600474 " transform="matrix(0.329651,0,0,0.329651,1.65,1.65)"/>
<path style=" stroke:none;fill-rule:nonzero;fill:rgb(90.588236%,29.803923%,23.529412%);fill-opacity:1;" d="M 29.96875 6.347656 C 28.929688 6.367188 28.097656 7.222656 28.109375 8.265625 L 28.109375 9.210938 L 17.714844 9.210938 C 17.210938 9.203125 16.722656 9.398438 16.363281 9.753906 C 16 10.109375 15.800781 10.59375 15.800781 11.101562 L 12.988281 11.101562 C 12.308594 11.089844 11.675781 11.449219 11.332031 12.039062 C 10.988281 12.625 10.988281 13.355469 11.332031 13.941406 C 11.675781 14.53125 12.308594 14.890625 12.988281 14.878906 L 47.011719 14.878906 C 47.691406 14.890625 48.324219 14.53125 48.667969 13.941406 C 49.011719 13.355469 49.011719 12.625 48.667969 12.039062 C 48.324219 11.449219 47.691406 11.089844 47.011719 11.101562 L 44.199219 11.101562 C 44.199219 10.59375 44 10.109375 43.636719 9.753906 C 43.277344 9.398438 42.789062 9.203125 42.285156 9.210938 L 31.890625 9.210938 L 31.890625 8.265625 C 31.898438 7.753906 31.695312 7.261719 31.335938 6.902344 C 30.972656 6.539062 30.480469 6.339844 29.96875 6.347656 Z M 12.988281 18.660156 L 16.378906 47.453125 C 16.601562 49.355469 18.210938 50.789062 20.128906 50.789062 L 39.871094 50.789062 C 41.789062 50.789062 43.394531 49.355469 43.621094 47.453125 L 47.011719 18.660156 Z M 12.988281 18.660156 "/>
</g>
</svg>
